<?xml version="1.0" encoding="utf-8"?>
<!-- Generator: Adobe Illustrator 27.5.0, SVG Export Plug-In . SVG Version: 6.00 Build 0)  -->
<svg version="1.1" xmlns="http://www.w3.org/2000/svg" xmlns:xlink="http://www.w3.org/1999/xlink" x="0px" y="0px"
	 viewBox="0 0 750 500" style="enable-background:new 0 0 750 500;" xml:space="preserve">
<g id="BACKGROUND">
	<rect y="0" style="fill:#F2EFE2;" width="750" height="500"/>
</g>
<g id="OBJECTS">
	<g>
		<g>
			<path style="fill:#D1F2F2;" d="M100.061,314.599c0,0,80.672-16.19,65.305-69.561c-15.367-53.371-87.997-97.67-78.682-50.52
				c9.315,47.15,34.398,82.723,40.523,59.936C133.333,231.667,162.123,272.198,100.061,314.599z"/>
			<path style="fill:#D1F2F2;" d="M613.684,115.148c0,0-8.948,76.32,42.684,119.419C708,277.667,696,153.135,670.667,166.401
				C645.333,179.667,613.684,115.148,613.684,115.148z"/>
			<path style="fill:#D1F2F2;" d="M30.108,472.553h697.465c0,0-122.108-36.29-109.051-73.129
				c13.056-36.839,143.613-94.368,43.836-149.424S634.981,48.382,527.535,71.99c-107.447,23.608-78.832,140.759-157.607,127.938
				c-78.776-12.821-31.845-153.797-132.585-117.814c-100.74,35.983-94.505,142.024-45.875,199.248
				C240.097,338.586,135.102,472.553,30.108,472.553z"/>
		</g>
		<path style="opacity:0.25;fill:#191038;" d="M567.83,473.129l-53.136-309.875h-23.621l0.926-3.924
			c0.819-3.466-1.328-6.938-4.793-7.756c-3.467-0.818-6.937,1.328-7.756,4.793l-1.626,6.887h-45.996l0.927-3.924
			c0.818-3.466-1.328-6.938-4.793-7.756c-3.468-0.818-6.937,1.328-7.756,4.793l-1.626,6.887h-45.754l0.927-3.924
			c0.818-3.466-1.328-6.938-4.793-7.756c-3.467-0.818-6.937,1.328-7.756,4.793l-1.626,6.887h-45.546l0.927-3.924
			c0.818-3.466-1.328-6.938-4.793-7.756c-3.465-0.821-6.938,1.328-7.756,4.793l-1.626,6.887h-15.637l-92.189,309.875H471.48
			l-0.003,0.019h96.353l-0.003-0.019H567.83z"/>
		<polygon style="opacity:0.25;fill:#191038;" points="611.82,127.482 543.754,127.482 527.151,241.567 618.605,241.567 
			629.358,144.545 		"/>
		<g style="opacity:0.25;">
			<g>
				<g>
					<g>
						<path style="fill:#191038;" d="M510.096,63.531c-0.861-0.171-1.737-0.269-2.606-0.4c-1.043,0-2.086,0-3.128,0
							c-1.317,0.24-2.655,0.396-3.946,0.735c-8.079,2.12-14.324,9.272-15.445,17.552c-0.655,4.835,0.201,9.363,2.534,13.632
							c5.003,9.153,10.01,18.304,14.995,27.466c0.637,1.171,1.563,1.889,2.825,2.222c0.401,0,0.802,0,1.203,0
							c1.477-0.352,2.353-1.338,3.06-2.641c4.84-8.923,9.707-17.83,14.597-26.725c1.974-3.591,3.004-7.393,2.917-11.501
							C526.895,74.082,519.686,65.44,510.096,63.531z M505.905,91.046c-4.779-0.007-8.66-3.92-8.643-8.714
							c0.017-4.75,3.918-8.619,8.682-8.612c4.781,0.007,8.662,3.919,8.643,8.712C514.569,87.182,510.668,91.052,505.905,91.046z"/>
					</g>
				</g>
				<g>
					<path style="fill:#191038;" d="M311.495,74.99h-28.732c-5.986,0-10.838,4.853-10.838,10.838v17.629l-15.102,20.024
						l23.458-16.628h31.215c5.986,0,10.838-4.853,10.838-10.838V85.828C322.333,79.843,317.481,74.99,311.495,74.99z"/>
				</g>
				<g>
					<rect x="357.296" y="91.82" style="fill:#191038;" width="65.472" height="41.985"/>
				</g>
			</g>
		</g>
		<g>
			<polygon style="fill:#B28CF5;" points="281.147,163.254 188.958,473.129 563.831,473.129 510.694,163.254 			"/>
			<polygon style="fill:#75207F;" points="510.694,163.254 467.477,473.148 563.831,473.148 			"/>
			<polygon style="fill:#F1008D;" points="281.147,163.254 262.389,226.306 501.901,226.306 510.694,163.254 			"/>
			<g>
				<ellipse style="fill:#3A092A;" cx="292.99" cy="207.872" rx="12.244" ry="10.068"/>
				<ellipse style="fill:#3A092A;" cx="351.236" cy="207.872" rx="12.244" ry="10.068"/>
				<ellipse style="fill:#3A092A;" cx="411.351" cy="207.872" rx="12.244" ry="10.068"/>
				<ellipse style="fill:#3A092A;" cx="470.902" cy="207.872" rx="12.244" ry="10.068"/>
			</g>
			<g>
				<path style="fill:#831778;" d="M293.177,213.06c-0.491,0-0.988-0.056-1.487-0.174c-3.466-0.818-5.612-4.29-4.793-7.756
					l11.513-48.763c0.818-3.465,4.29-5.614,7.756-4.793c3.466,0.818,5.612,4.29,4.793,7.756l-11.513,48.763
					C298.746,211.06,296.099,213.06,293.177,213.06z"/>
				<path style="fill:#831778;" d="M351.972,213.06c-0.49,0-0.988-0.056-1.487-0.174c-3.466-0.818-5.612-4.29-4.793-7.756
					l11.513-48.763c0.819-3.465,4.289-5.612,7.756-4.793c3.466,0.818,5.612,4.29,4.793,7.756l-11.513,48.763
					C357.54,211.06,354.893,213.06,351.972,213.06z"/>
				<path style="fill:#831778;" d="M410.974,213.06c-0.49,0-0.988-0.056-1.487-0.174c-3.466-0.818-5.612-4.29-4.793-7.756
					l11.513-48.763c0.819-3.465,4.288-5.612,7.756-4.793c3.466,0.818,5.612,4.29,4.793,7.756l-11.513,48.763
					C416.542,211.06,413.895,213.06,410.974,213.06z"/>
				<path style="fill:#831778;" d="M470.218,213.06c-0.49,0-0.988-0.056-1.487-0.174c-3.466-0.818-5.612-4.29-4.793-7.756
					l11.513-48.763c0.818-3.465,4.289-5.612,7.756-4.793c3.466,0.818,5.612,4.29,4.793,7.756l-11.513,48.763
					C475.786,211.06,473.139,213.06,470.218,213.06z"/>
			</g>
			<polygon style="fill:#FFFFFF;" points="392.947,301.575 406.115,231.665 330.681,231.665 314.038,301.575 			"/>
			<g>
				<polygon style="fill:#FFFFFF;" points="482.558,301.575 492.888,231.665 410.802,231.665 397.633,301.575 				"/>
				<polygon style="fill:#FFFFFF;" points="312.942,306.181 294.832,382.252 377.751,382.252 392.079,306.181 				"/>
				<polygon style="fill:#FFFFFF;" points="293.735,386.857 275.28,464.377 362.282,464.377 376.883,386.857 				"/>
				<polygon style="fill:#FFFFFF;" points="396.766,306.181 382.437,382.252 470.638,382.252 481.878,306.181 				"/>
				<polygon style="fill:#FFFFFF;" points="366.968,464.377 458.503,464.377 469.957,386.857 381.57,386.857 				"/>
				<polygon style="fill:#FFFFFF;" points="308.208,306.181 246.015,306.181 224.037,382.252 290.098,382.252 				"/>
				<polygon style="fill:#FFFFFF;" points="222.706,386.857 200.31,464.377 270.546,464.377 289.001,386.857 				"/>
				<polygon style="fill:#FFFFFF;" points="325.948,231.665 267.544,231.665 247.346,301.575 309.305,301.575 				"/>
			</g>
			<g>
				
					<polyline style="fill:none;stroke:#75207F;stroke-width:8;stroke-linecap:round;stroke-linejoin:round;stroke-miterlimit:10;" points="
					335.393,256.226 348.287,279.702 392.079,246.402 				"/>
				
					<polyline style="fill:none;stroke:#75207F;stroke-width:8;stroke-linecap:round;stroke-linejoin:round;stroke-miterlimit:10;" points="
					413.121,261.373 426.015,284.849 469.807,251.549 				"/>
				
					<polyline style="fill:none;stroke:#75207F;stroke-width:8;stroke-linecap:round;stroke-linejoin:round;stroke-miterlimit:10;" points="
					310.649,337.39 323.543,360.867 367.335,327.566 				"/>
			</g>
			<path style="fill:#F1008D;" d="M352.285,406.156c-1.273-1.587-3.591-1.841-5.179-0.568l-19.445,15.598l-14.04-15.222
				c-1.38-1.497-3.711-1.589-5.206-0.211c-1.496,1.38-1.59,3.71-0.211,5.206l13.695,14.848l-22.174,17.787
				c-1.587,1.273-1.842,3.591-0.568,5.179c0.728,0.908,1.797,1.379,2.876,1.379c0.809,0,1.623-0.265,2.303-0.81l22.571-18.106
				l16.353,17.73c0.727,0.788,1.716,1.186,2.709,1.186c0.893,0,1.789-0.323,2.497-0.976c1.496-1.38,1.59-3.71,0.211-5.206
				l-16.009-17.356l19.048-15.279C353.304,410.062,353.558,407.743,352.285,406.156z"/>
			<polygon style="fill:#421949;" points="510.694,163.254 527.273,472.666 467.477,472.666 			"/>
			<g>
				<path style="opacity:0.32;fill:#090D16;" d="M399.107,316.5v75.848c0,0,55.007-13.827,70.7-13.588L399.107,316.5z"/>
				<path style="fill:#EDA054;" d="M399.107,316.5c0,0,0.623,52.568,7.008,68.784l63.692-6.524c0,0-14.807-43.635-15.807-66.698
					L399.107,316.5z"/>
				<circle style="fill:#111F69;" cx="425.843" cy="327.501" r="7.38"/>
			</g>
			<g>
				<path style="opacity:0.32;fill:#090D16;" d="M323.765,241.416v75.848c0,0-55.007-13.827-70.7-13.588L323.765,241.416z"/>
				<path style="fill:#EDA054;" d="M323.765,241.416c0,0-0.623,52.568-7.008,68.784l-63.692-6.524c0,0,14.807-43.635,15.807-66.697
					L323.765,241.416z"/>
				<path style="fill:#111F69;" d="M289.65,252.417c0,4.076,3.304,7.38,7.38,7.38c4.076,0,7.38-3.304,7.38-7.38
					c0-4.076-3.304-7.38-7.38-7.38C292.954,245.038,289.65,248.342,289.65,252.417z"/>
			</g>
			<path style="opacity:0.32;fill:#090D16;" d="M251.585,264.167c0.001,0.001,0.003,0.002,0.003,0.002
				c33.424,20.2,49.632,72.754,36.74,128.032c-8.036,34.46-25.748,62.961-47.374,80.352h-53.033l62.233-209.183"/>
		</g>
		<g>
			<path style="fill:#597CD3;" d="M229.826,238.629c-0.882-0.205-1.765-0.383-2.649-0.547l-24.892-5.141l-1.265,6.034
				c-35.215,8.674-67.778,46.392-79.558,96.901c-12.389,53.125,2.096,103.737,32.913,125.53l-1.012,4.828l21.159,4.514
				c0.369,0.094,0.735,0.193,1.107,0.279c1.109,0.259,2.22,0.475,3.333,0.668l0.186,0.04l0.012-0.005
				c43.867,7.462,90.259-35.454,104.833-97.95C298.959,309.605,274.708,249.096,229.826,238.629z"/>
			
				<ellipse transform="matrix(0.2271 -0.9739 0.9739 0.2271 -200.9963 447.1821)" style="fill:#09257F;" cx="181.237" cy="350.223" rx="119.317" ry="83.446"/>
			
				<ellipse transform="matrix(0.2271 -0.9739 0.9739 0.2271 -200.9963 447.1822)" style="fill:#EAE6C7;" cx="181.237" cy="350.223" rx="105.863" ry="74.037"/>
			<path style="fill:#CCC392;" d="M113.74,338.474c13.279-56.939,56.325-95.568,96.145-86.282
				c10.133,2.363,19.077,7.606,26.568,15.041c-8.321-10.129-18.872-17.238-31.173-20.106c-39.821-9.287-82.867,29.343-96.145,86.282
				c-9.9,42.45-0.456,83.088,21.491,104.871C112.008,415.618,104.563,377.825,113.74,338.474z"/>
			<g>
				<path style="fill:#09257F;" d="M204.186,378.412l-14.503-23.834c0.369-0.807,0.671-1.678,0.887-2.604
					c1.236-5.299-0.767-10.295-4.472-11.159c-0.1-0.023-0.202-0.031-0.302-0.048l-0.001-0.003l-3.154-0.611l-0.267,1.193
					l-19.326-43.264l13.739,46.593h2.12c-0.772,1.196-1.39,2.601-1.756,4.169c-0.839,3.599-0.182,7.055,1.486,9.175l-0.289,1.289
					l3.127,0.649c0.05,0.013,0.097,0.034,0.148,0.046c0.103,0.024,0.207,0.032,0.311,0.049l0.138,0.029l0.005-0.006
					c0.671,0.091,1.345,0.026,2.009-0.148L204.186,378.412z"/>
				<path style="fill:#597CD3;" d="M187.992,351.799c-1.244,5.334-5.277,8.953-9.007,8.083c-3.731-0.87-5.746-5.9-4.502-11.234
					c1.244-5.334,5.277-8.953,9.007-8.083C187.22,341.435,189.236,346.464,187.992,351.799z"/>
				<path style="fill:#09257F;" d="M163.405,449.312L163.405,449.312c-0.867-0.154-1.445-0.982-1.291-1.849l3.365-18.926
					c0.154-0.867,0.982-1.445,1.849-1.291l0,0c0.867,0.154,1.445,0.982,1.291,1.849l-3.365,18.926
					C165.1,448.888,164.272,449.466,163.405,449.312z"/>
				<path style="fill:#09257F;" d="M229.627,358.928L229.627,358.928c0.126-0.871,0.935-1.476,1.807-1.349l19.023,2.76
					c0.872,0.126,1.476,0.935,1.349,1.807l0,0c-0.126,0.872-0.935,1.476-1.807,1.349l-19.023-2.759
					C230.104,360.609,229.5,359.8,229.627,358.928z"/>
				<path style="fill:#09257F;" d="M213.49,385.957L213.49,385.957c0.502-0.723,1.496-0.903,2.219-0.401l15.79,10.963
					c0.723,0.502,0.903,1.496,0.4,2.219l0,0c-0.502,0.724-1.496,0.903-2.219,0.401l-15.79-10.962
					C213.167,387.674,212.988,386.681,213.49,385.957z"/>
				<path style="fill:#09257F;" d="M129.927,305.274L129.927,305.274c0.502-0.723,1.496-0.903,2.219-0.4l15.79,10.963
					c0.723,0.502,0.903,1.496,0.4,2.219l0,0c-0.502,0.723-1.496,0.903-2.219,0.401l-15.79-10.963
					C129.604,306.991,129.425,305.997,129.927,305.274z"/>
				<path style="fill:#09257F;" d="M198.04,410.335L198.04,410.335c0.8-0.368,1.747-0.018,2.115,0.781l8.041,17.46
					c0.368,0.8,0.019,1.747-0.781,2.115l0,0c-0.8,0.368-1.747,0.018-2.115-0.781l-8.041-17.46
					C196.89,411.651,197.24,410.703,198.04,410.335z"/>
				<path style="fill:#09257F;" d="M146.67,408.643L146.67,408.643c0.587,0.657,0.53,1.665-0.127,2.251l-14.333,12.808
					c-0.657,0.587-1.665,0.53-2.252-0.127l0,0c-0.587-0.657-0.53-1.665,0.127-2.252l14.333-12.808
					C145.075,407.93,146.083,407.986,146.67,408.643z"/>
				<path style="fill:#09257F;" d="M240.541,279.061L240.541,279.061c0.587,0.657,0.53,1.665-0.126,2.252l-14.333,12.808
					c-0.657,0.587-1.665,0.53-2.251-0.126l0,0c-0.587-0.657-0.53-1.665,0.126-2.252l14.333-12.808
					C238.946,278.348,239.954,278.404,240.541,279.061z"/>
				<path style="fill:#09257F;" d="M136.535,376.059L136.535,376.059c0.185,0.861-0.363,1.709-1.224,1.894l-18.794,4.035
					c-0.861,0.185-1.709-0.363-1.894-1.224l0,0c-0.185-0.861,0.363-1.709,1.224-1.894l18.794-4.035
					C135.502,374.65,136.35,375.198,136.535,376.059z"/>
				<path style="fill:#09257F;" d="M254.865,322.308L254.865,322.308c0.185,0.861-0.363,1.709-1.224,1.894l-18.794,4.035
					c-0.861,0.185-1.709-0.363-1.894-1.224l0,0c-0.185-0.861,0.363-1.709,1.224-1.894l18.794-4.035
					C253.833,320.899,254.68,321.447,254.865,322.308z"/>
				<path style="fill:#09257F;" d="M155.064,276.349L155.064,276.349c0.8-0.368,1.747-0.019,2.115,0.781l8.041,17.46
					c0.368,0.8,0.018,1.747-0.781,2.115l0,0c-0.8,0.368-1.747,0.018-2.115-0.781l-8.041-17.46
					C153.914,277.665,154.264,276.718,155.064,276.349z"/>
				<path style="fill:#09257F;" d="M116.118,340.405L116.118,340.405c0.126-0.872,0.936-1.476,1.807-1.349l19.023,2.759
					c0.872,0.126,1.476,0.936,1.349,1.807l0,0c-0.126,0.872-0.936,1.476-1.807,1.349l-19.023-2.76
					C116.596,342.086,115.992,341.277,116.118,340.405z"/>
				<path style="fill:#09257F;" d="M197.488,276.544L197.488,276.544c-0.867-0.154-1.445-0.982-1.291-1.849l3.365-18.926
					c0.154-0.867,0.982-1.445,1.849-1.291l0,0c0.867,0.154,1.445,0.982,1.291,1.849l-3.365,18.926
					C199.183,276.12,198.355,276.698,197.488,276.544z"/>
			</g>
			<path style="opacity:0.15;fill:#09257F;" d="M123.553,295.687l2.684,8.642l41.492-26.059l15.427,23.039
				c0,0-4.605,14.438-3.684,17.431l30.624-15.438c0,0-5.695-11.606-10.822-12.585l-4.226-36.219l26.796,2.069v-2.443l9.633-9.092
				l15.776,0.715c-5.38-3.251-11.204-5.668-17.426-7.119c-0.882-0.205-1.765-0.383-2.649-0.547l-15.913-3.286
				c-0.967-0.278-1.941-0.541-2.928-0.772c-1.998-0.466-4.003-0.82-6.012-1.075l-0.039-0.008l0,0.003
				c-32.9-4.151-66.844,19.602-87.433,58.33l0,0L123.553,295.687z"/>
		</g>
		<g>
			<g>
				<path style="fill:#EFCDCA;" d="M118.986,281.374l6.46-11.362l10.067,6.155l-7.844,9.227
					C127.669,285.395,117.901,289.753,118.986,281.374z"/>
				<path style="fill:#EC0866;" d="M100.061,283.385l28.064,14.697c0,0,2.682-12.111,0.914-13.037
					c-1.768-0.926-6.85,2.326-10.086-3.592C118.954,281.452,104.68,275.104,100.061,283.385z"/>
			</g>
			<g>
				<path style="fill:#EC0866;" d="M177.986,314.599l28.337-14.164c0,0-8.254-9.26-10.039-8.368
					c-1.785,0.892-2.12,6.916-8.814,6.079C187.47,298.146,173.971,306.009,177.986,314.599z"/>
				<path style="fill:#EFCDCA;" d="M187.285,297.645l-6.048-11.145l10.23-5.138l3.58,11.191
					C195.047,292.553,193.63,302.833,187.285,297.645z"/>
			</g>
			<g>
				<path style="fill:#D55991;" d="M240.716,221.037c0,0-1.839,25.71-23.944,19.877c-22.105-5.833-34.385-9.508-34.385-9.508
					l12.28,55.559l-12.28,7.061l-19.342-44.823l-30.641,32.871l-11.88-8.617c0,0,34.871-64.719,45.91-67.972
					C177.476,202.231,221.679,206.072,240.716,221.037z"/>
				<g>
					<path style="fill:none;stroke:#872154;stroke-linecap:round;stroke-linejoin:round;stroke-miterlimit:10;" d="M176.555,220.191
						c0,0-0.154,6.926,5.833,11.215l-19.342,17.797"/>
					<path style="fill:none;stroke:#872154;stroke-linecap:round;stroke-linejoin:round;stroke-miterlimit:10;" d="M224.786,218.99
						c0,0-3.101,8.569,3.653,13.482"/>
					<path style="fill:none;stroke:#872154;stroke-linecap:round;stroke-linejoin:round;stroke-miterlimit:10;" d="M224.156,225.007
						c0,0-46.219-16.943-51.439-15.868c-5.219,1.074-47.139,67.983-47.139,67.983"/>
					
						<line style="fill:none;stroke:#872154;stroke-linecap:round;stroke-linejoin:round;stroke-miterlimit:10;" x1="172.717" y1="240.304" x2="188.142" y2="290.718"/>
				</g>
			</g>
			<g>
				<path style="fill:#DE9595;" d="M220.471,118.91c0.067,0.046,0.13,0.097,0.202,0.137c2.223,1.223,5.857-1.113,8.116-5.219
					c0.198-0.359,0.372-0.72,0.536-1.081c0.095-0.211,0.187-0.421,0.271-0.631c1.413-3.533,1.173-6.884-0.742-7.938
					c-2.039-1.122-5.262,0.756-7.526,4.242c-0.204,0.314-0.404,0.637-0.591,0.977c-0.017,0.032-0.032,0.063-0.049,0.095
					c-1.779,3.286-2.124,6.68-1.038,8.512l0.001,0.001C219.868,118.373,220.138,118.682,220.471,118.91z"/>
				<g>
					<path style="fill:#D79081;" d="M216.632,120.341c0.273-2.219-18.377-3.339-13.643,9.438c0.002,0.006,0.003,0.01,0.005,0.016
						c0,0,0.932,0.851,1.902,2.416c0.952,1.536,1.94,3.759,2.118,6.549c0.361,5.633,17.264,1.441,13.495-6.666
						c-0.644-1.385-1.182-2.562-1.642-3.594c-1.15-2.583-1.769-4.185-2.065-5.377C216.523,122.004,216.522,121.233,216.632,120.341z
						"/>
					<path style="fill:#AF695D;" d="M202.989,129.779c-4.734-12.777,13.916-11.657,13.643-9.438c-0.11,0.892-0.109,1.662,0.17,2.783
						c0.144,0.579,0.366,1.257,0.685,2.094l0,0c-8.077,6.069-14.489,4.579-14.492,4.578l-0.001-0.001
						C202.992,129.79,202.991,129.785,202.989,129.779z"/>
				</g>
				<path style="fill:#EFCDCA;" d="M190.468,107.51c0,0,1.908,5.24,1.911,9.688c0.003,4.449,5.619,10.854,10.037,12.438
					c4.419,1.584,12.484-3.887,15.242-7.505c2.759-3.618,3.947-12.143,3.646-15.892c-0.301-3.749-7.701-17.905-18.135-14.887
					C192.734,94.371,187.529,98.531,190.468,107.51z"/>
				<polygon style="fill:none;" points="221.328,108.42 221.328,108.42 221.328,108.42 				"/>
				<path style="fill:#EFCDCA;" d="M221.328,108.42c-2.353,0.978-7.011-4.201-7.011-4.201s-0.153,3.224-6.294,2.883
					c-6.14-0.34-12.883-6.644-12.883-6.644c0.449,3.224-3.786,9.968-3.786,9.968l13.891,19.413
					c3.502-0.486,7.795-3.168,10.557-5.721L221.328,108.42L221.328,108.42z"/>
				<path style="fill:#2C2636;" d="M221.304,106.239c-0.301-3.749-7.701-17.905-18.135-14.886
					c-10.434,3.019-15.64,7.178-12.701,16.157c0,0,0.432,1.193,0.885,2.916h0.001c0,0,4.236-6.744,3.786-9.968
					c0,0,6.743,6.304,12.883,6.644c6.14,0.34,6.294-2.883,6.294-2.883s4.658,5.179,7.011,4.201
					C221.358,107.597,221.353,106.85,221.304,106.239z"/>
				<path style="fill:#2C2636;" d="M202.994,129.795L202.994,129.795c-0.198-0.042-0.393-0.092-0.579-0.159
					c-4.419-1.585-10.035-7.99-10.037-12.438c-0.003-4.448-1.911-9.688-1.911-9.688c-2.939-8.979,2.266-13.139,12.701-16.157
					c10.435-3.018,17.834,11.137,18.135,14.886c0.049,0.611,0.054,1.358,0.024,2.181c2.263-3.486,5.486-5.364,7.526-4.242
					c1.915,1.054,2.155,4.406,0.742,7.938c-0.084,0.21-0.175,0.42-0.271,0.631c-0.164,0.36-0.338,0.721-0.536,1.081
					c-2.259,4.106-5.893,6.442-8.116,5.219c-0.072-0.039-0.135-0.091-0.202-0.137c-0.333-0.227-0.602-0.537-0.82-0.904
					c-0.536,1.626-1.197,3.082-1.993,4.125c-0.244,0.32-0.532,0.654-0.855,0.997c0.036,0.144,0.077,0.295,0.122,0.452
					c0.04,0.138,0.086,0.284,0.134,0.434c0.007,0.021,0.012,0.041,0.019,0.062c0.056,0.171,0.117,0.35,0.184,0.537
					c0.001,0.002,0.001,0.004,0.002,0.006c0.067,0.188,0.14,0.385,0.219,0.592c0.339,0.889,0.789,1.956,1.382,3.289
					c0.186,0.418,0.39,0.868,0.604,1.338c0,0,16.95,1.78,19.56,7.92c1.144,2.692,4.678,13.291,8.299,24.839l1.185,3.803
					c0,0,6.71-13.828,1.414-26.569c-5.296-12.741-16.118-25.865-18.42-31.008c-2.303-5.142-2.993-13.201-2.993-13.201
					s14.559-1.458,1.984-6.754c0,0,14.518,1.996,6.843-6.754c-7.675-8.75-28.068-12.741-31.841-8.289
					c-3.772,4.452,7.51,12.28,7.51,12.28s-21.798-0.844-23.947,11.129c-2.149,11.973,3.397,25.879,3.07,30.317
					c-0.241,3.269-0.737,5.868-1.396,8.058c3.376-1.177,9.483-3.097,14.156-3.398C203.926,130.646,202.994,129.795,202.994,129.795z
					"/>
			</g>
			<g>
				<path style="fill:#78127D;" d="M256.837,197.012c-0.086-3.276-4.868-19.622-9.507-34.414
					c-3.621-11.547-7.155-22.147-8.299-24.839c-2.61-6.14-19.56-7.92-19.56-7.92h0c-7.576,9.315-14.575,2.372-14.575,2.372
					c-4.673,0.301-10.78,2.222-14.156,3.398c-1.545,0.539-2.519,0.922-2.519,0.922l-4.978,13.495l-0.825,2.237l-13.845,37.533
					l-12.715,4.72l-0.102,10.784c0,0,7.752,0.46,18.344,0c10.592-0.461,33.003,5.833,42.781,10.899
					c9.778,5.066,27.216,4.912,27.216,4.912l-0.153-13.815C243.943,207.296,256.991,202.845,256.837,197.012z"/>
				<path style="fill:#EFCDCA;" d="M155.858,194.517v10.822h-14.806C141.052,205.339,145.784,194.517,155.858,194.517z"/>
				<path style="fill:#EFCDCA;" d="M202.727,196.014v10.822h-14.806C187.922,206.836,192.654,196.014,202.727,196.014z"/>
				<g>
					<polyline style="fill:none;stroke:#390C3D;stroke-linecap:round;stroke-linejoin:round;stroke-miterlimit:10;" points="
						243.943,207.296 202.219,205.915 202.219,195.63 231.509,185.345 225.216,146.662 					"/>
					
						<line style="fill:none;stroke:#390C3D;stroke-linecap:round;stroke-linejoin:round;stroke-miterlimit:10;" x1="178.871" y1="205.456" x2="193.901" y2="147.737"/>
					<path style="fill:none;stroke:#390C3D;stroke-linecap:round;stroke-linejoin:round;stroke-miterlimit:10;" d="M213.396,152.649
						h9.685C223.081,152.649,217.233,175.214,213.396,152.649z"/>
				</g>
			</g>
			<g>
				<rect x="191.598" y="203.919" style="fill:#1A5ED6;" width="24.561" height="2.917"/>
				<polygon style="fill:#021F72;" points="141.249,206.836 196.501,206.836 179.471,167.322 121.293,167.322 				"/>
				<path style="fill:#FFFFFF;" d="M163.564,184.4c2.299,2.911,2.073,6.92-0.504,8.956s-6.53,1.326-8.829-1.584
					s-2.074-6.92,0.504-8.956C157.312,180.78,161.265,181.489,163.564,184.4z"/>
			</g>
		</g>
		<g>
			<g>
				<polygon style="fill:#B00575;" points="509.702,368.067 490.121,324.66 433.478,324.66 455.276,378.76 510.614,370.087 
					520.515,366.403 				"/>
				<polygon style="fill:#F4F3D3;" points="442.228,327.501 460.833,370.833 505.5,366.059 488.604,327.501 				"/>
				<polygon style="fill:#82115F;" points="433.478,324.66 438.39,324.66 458.039,373.234 520.515,366.403 510.614,370.087 
					455.276,378.76 				"/>
			</g>
			<g>
				<path style="fill:#D79081;" d="M533.795,298.191c0,0,1.538,12.86,2.714,15.944c1.177,3.083,13.938-5.295,13.938-5.295
					s-10.091-17.665-11.409-23.135C537.722,280.234,533.795,298.191,533.795,298.191z"/>
				<path style="fill:#AF695D;" d="M543.75,296.457c-2.176-4.262-4.173-8.522-4.711-10.753c-1.318-5.47-5.244,12.486-5.244,12.486
					s0.277,2.319,0.686,5.221l0,0C534.482,303.412,538.994,301.769,543.75,296.457z"/>
				<path style="fill:#ECC1BA;" d="M508.491,273.937l1.464,7.262c0,0,4.954,3.152,5.179,9.345
					c0.225,6.192,3.715,10.921,8.669,12.497c4.954,1.576,12.497,3.265,15.199-9.682c2.702-12.948,0.901-20.491-2.139-23.418
					C533.824,267.013,513.445,257.218,508.491,273.937z"/>
				<path style="fill:#17294C;" d="M548.76,260.102c-8.136-19.035-38.606-11.129-38.606-11.129
					c-14.736,5.066-15.657,18.651-10.362,25.328s13.355,1.842,13.355-0.693s8.289-4.373,9.671,0c0.86,2.721,5.013,2.055,8.029,1.165
					l0,0c0,0,4.611,8.736,7.118,10.157c0,0-2.882-6.492-3.865-11.309c8.341,10.124,4.904,19.738,4.904,19.738
					C548.741,300.826,556.895,279.136,548.76,260.102z"/>
				<path style="fill:#E27979;" d="M540.191,284.93c0,0-5.972-1.244-6.38-7.955c-0.168-2.753,1.051-10.33,5.894-8.695
					C544.548,269.913,548.555,284.481,540.191,284.93L540.191,284.93z"/>
			</g>
			<g>
				<path style="fill:#ECC1BA;" d="M428.776,459.682l7.173-17.236h11.669l-7.708,17.236
					C439.91,459.682,432.095,474.991,428.776,459.682z"/>
				<path style="fill:#E5651F;" d="M409.292,473.405h40.253c0,0-1.82-12.652-9.635-13.723c0,0-5.567,10.17-11.134,0
					C428.776,459.682,409.292,459.722,409.292,473.405z"/>
			</g>
			<g>
				<path style="fill:#ECC1BA;" d="M500.932,459.682l-7.173-17.236H482.09l7.708,17.236
					C489.798,459.682,497.613,474.991,500.932,459.682z"/>
				<path style="fill:#E5651F;" d="M470.247,473.405H510.5c0,0-1.82-12.652-9.635-13.723c0,0-5.567,10.17-11.134,0
					C489.731,459.682,470.247,459.722,470.247,473.405z"/>
			</g>
			<g>
				<path style="fill:#111F69;" d="M510.614,370.087l-55.338,8.673l-27.631,75.938l17.192,2.042l21.184-30.701l18.727,30.701
					l18.728-4.912l-23.947-50.426h58.255c0,0,2.533-2.302,1.266-8.75C537.784,386.205,514.203,369.525,510.614,370.087z"/>
				<g>
					<path style="fill:none;stroke:#0C1435;stroke-linecap:round;stroke-linejoin:round;stroke-miterlimit:10;" d="M466.021,426.039
						l13.508-24.637c0,0-7.982-1.458-11.359-6.831"/>
					
						<line style="fill:none;stroke:#0C1435;stroke-linecap:round;stroke-linejoin:round;stroke-miterlimit:10;" x1="509.155" y1="371.699" x2="534.33" y2="398.869"/>
					
						<line style="fill:none;stroke:#0C1435;stroke-linecap:round;stroke-linejoin:round;stroke-miterlimit:10;" x1="429.333" y1="453.056" x2="443.763" y2="454.284"/>
					
						<line style="fill:none;stroke:#0C1435;stroke-linecap:round;stroke-linejoin:round;stroke-miterlimit:10;" x1="473.354" y1="412.665" x2="493.268" y2="452.289"/>
					<polyline style="fill:none;stroke:#0C1435;stroke-linecap:round;stroke-linejoin:round;stroke-miterlimit:10;" points="
						435.151,453.551 466.021,388.738 518.909,382.226 					"/>
					
						<line style="fill:none;stroke:#0C1435;stroke-linecap:round;stroke-linejoin:round;stroke-miterlimit:10;" x1="485.669" y1="454.284" x2="500.866" y2="450.293"/>
				</g>
			</g>
			<path style="fill:#ECC1BA;" d="M489.299,357.656c0,0-13.684,1.379-20.131,16.806l12.434-2.072
				C481.602,372.39,485.023,363.185,489.299,357.656z"/>
			<g>
				<path style="fill:#E5651F;" d="M546.992,302.604l-15.655,9.458c0,0-14.046,32.696-16.809,35.69
					c-2.763,2.993-24.177,9.21-24.177,9.21s-9.671,5.526-8.75,15.427l38.913-5.987l-9.901,3.684c0,0,20.953,23.026,24.177,26.249
					c3.224,3.224,2.993,5.066,2.993,5.066s21.184-2.302,25.098-15.888C566.796,371.929,560.345,298.442,546.992,302.604z"/>
				<g>
					<path style="fill:none;stroke:#914017;stroke-linecap:round;stroke-linejoin:round;stroke-miterlimit:10;" d="M520.515,366.403
						c0,0,11.979-0.844,13.281-2.686c1.302-1.842,7.289-42.981,7.289-42.981"/>
					<path style="fill:none;stroke:#914017;stroke-linecap:round;stroke-linejoin:round;stroke-miterlimit:10;" d="M515.603,370.073
						c0,0,21.184,21.735,22.719,24.498s1.084,4.298,1.084,4.298"/>
					
						<line style="fill:none;stroke:#914017;stroke-linecap:round;stroke-linejoin:round;stroke-miterlimit:10;" x1="531.337" y1="312.063" x2="549.834" y2="304.108"/>
					<path style="fill:none;stroke:#914017;stroke-linecap:round;stroke-linejoin:round;stroke-miterlimit:10;" d="M514.528,347.753
						c0,0-3.377,5.685-1.075,9.904"/>
				</g>
			</g>
		</g>
		<g>
			<g>
				<path style="fill:#914017;" d="M661.612,472.553H527.317c-6.72,0-12.168-5.448-12.168-12.168v-11.313
					c0-6.72,5.448-12.168,12.168-12.168h134.294V472.553z"/>
				<rect x="592.855" y="436.905" style="fill:#AF5228;" width="69.502" height="35.648"/>
				<rect x="529.915" y="442.573" style="fill:#C2B8CC;" width="132.442" height="22.83"/>
				<rect x="592.557" y="442.573" style="fill:#D5CAE0;" width="69.801" height="22.83"/>
			</g>
			<g>
				<path style="fill:#B23272;" d="M639.73,437.264H505.435c-6.72,0-12.168-5.448-12.168-12.168V413.57
					c0-6.72,5.448-12.168,12.168-12.168H639.73V437.264z"/>
				<rect x="570.973" y="401.402" style="fill:#D34F97;" width="69.502" height="35.862"/>
				<rect x="508.033" y="407.104" style="fill:#C2B8CC;" width="132.442" height="22.967"/>
				<rect x="570.675" y="407.104" style="fill:#D5CAE0;" width="69.801" height="22.967"/>
			</g>
		</g>
		<g>
			<polygon style="fill:#B18CF6;" points="607.82,120.482 539.754,120.482 523.151,234.568 614.605,234.568 625.358,137.545 
				625.358,137.545 			"/>
			<g>
				<polygon style="fill:#FFFFFF;" points="529.926,227.375 607.82,227.375 609.536,215.02 531.623,215.02 				"/>
				<polygon style="fill:#FFFFFF;" points="531.985,211.417 609.879,211.417 611.595,199.062 533.682,199.062 				"/>
				<polygon style="fill:#FFFFFF;" points="534.044,194.944 611.938,194.944 613.654,182.589 535.741,182.589 				"/>
				<polygon style="fill:#FFFFFF;" points="536.103,178.985 613.997,178.985 615.713,166.63 537.8,166.63 				"/>
				<polygon style="fill:#FFFFFF;" points="538.912,163.199 616.805,163.199 618.521,150.844 540.608,150.844 				"/>
			</g>
			<polygon style="fill:#3F1FA3;" points="607.82,120.482 605.761,141.139 625.358,137.545 			"/>
			<polygon style="fill:#6B45C9;" points="607.82,120.482 625.358,137.545 603.93,138.622 			"/>
		</g>
		<g>
			<g>
				<path style="fill:#F1008D;" d="M499.361,60.131c1.043,0,2.086,0,3.128,0c0.869,0.132,1.745,0.229,2.607,0.4
					c9.59,1.909,16.799,10.551,17.005,20.339c0.087,4.108-0.943,7.91-2.917,11.501c-4.89,8.895-9.757,17.803-14.597,26.725
					c-0.707,1.303-1.583,2.289-3.06,2.641c-0.401,0-0.802,0-1.203,0c-1.262-0.333-2.188-1.052-2.825-2.222
					c-4.985-9.163-9.992-18.313-14.995-27.466c-2.333-4.268-3.188-8.797-2.534-13.632c1.121-8.279,7.366-15.431,15.445-17.552
					C496.706,60.526,498.044,60.371,499.361,60.131z M500.945,70.72c-4.764-0.007-8.665,3.862-8.682,8.612
					c-0.017,4.794,3.864,8.707,8.643,8.714c4.763,0.007,8.664-3.864,8.683-8.614C509.607,74.639,505.726,70.727,500.945,70.72z"/>
			</g>
		</g>
		<g>
			<g>
				<path style="fill:#71AF28;" d="M114.688,373.037c-1.265-4.803-13.765,1.223-9.785-2.096c3.98-3.318,12.003-14.83,8.053-18.356
					s-13.166,10.222-7.455-1.201c5.711-11.423-1.94-12.521-1.94-12.521s-6.904-3.475-8.753,9.161
					c-1.849,12.636-1.545-3.912-6.802-3.28c-5.257,0.633-5.261,14.665-3.894,19.663c1.367,4.998-5.44-7.094-9.225-3.878
					c-3.785,3.216-0.487,20.244,14.067,24.817C103.508,389.921,115.952,377.84,114.688,373.037z M79.929,375.53
					c-0.941,0.091-1.856-1.395-2.043-3.321c-0.187-1.925,0.425-3.56,1.366-3.652c0.941-0.091,1.856,1.395,2.043,3.321
					C81.482,373.804,80.87,375.439,79.929,375.53z M104.316,363.306c-0.601-0.731,0.124-2.319,1.619-3.547
					c1.494-1.228,3.193-1.632,3.793-0.901c0.6,0.731-0.124,2.319-1.619,3.547C106.615,363.634,104.917,364.037,104.316,363.306z"/>
				<path style="fill:#71AF28;" d="M126.726,420.576c1.736-4.654-11.951-6.938-6.786-7.354c5.165-0.416,18.358-5.196,17.163-10.354
					c-1.195-5.159-16.651,0.76-5.399-5.28c11.252-6.04,5.635-11.349,5.635-11.349s-3.637-6.82-12.434,2.438
					c-8.797,9.258,0.994-4.087-3.666-6.601c-4.66-2.515-12.754,8.948-14.519,13.82c-1.766,4.872-0.354-8.933-5.301-8.487
					c-4.947,0.446-12.07,16.259-2.816,28.388S124.99,425.229,126.726,420.576z M96.89,402.571c-0.822-0.468-0.712-2.21,0.246-3.891
					c0.957-1.681,2.4-2.664,3.222-2.196c0.822,0.468,0.712,2.21-0.246,3.891C99.154,402.056,97.712,403.039,96.89,402.571z
					 M123.863,406.645c-0.069-0.943,1.438-1.823,3.368-1.965c1.929-0.142,3.549,0.508,3.619,1.451
					c0.069,0.943-1.438,1.823-3.368,1.965C125.553,408.238,123.932,407.589,123.863,406.645z"/>
				<path style="fill:#71AF28;" d="M86.396,389.615c-3.402-1.999-7.074,8.395-6.688,4.297c0.386-4.098-1.537-15.078-5.738-14.854
					c-4.2,0.224-1.698,13.132-4.874,3.497c-3.176-9.635-8.103-5.971-8.103-5.971s-5.836,1.906,0.195,10.064
					c6.032,8.157-3.061-1.34-5.67,1.959c-2.609,3.3,5.244,11.21,8.813,13.263c3.568,2.052-7.038-0.953-7.37,2.979
					c-0.333,3.932,11.058,11.683,21.822,6.113C89.547,405.39,89.798,391.614,86.396,389.615z M68.201,410.479
					c-0.479,0.578-1.827,0.252-3.01-0.728c-1.183-0.981-1.754-2.245-1.274-2.823c0.479-0.578,1.827-0.252,3.01,0.728
					C68.11,408.637,68.681,409.901,68.201,410.479z M75.103,389.937c-0.748-0.076-1.228-1.376-1.073-2.905s0.886-2.707,1.634-2.631
					c0.747,0.076,1.228,1.376,1.073,2.905S75.851,390.013,75.103,389.937z"/>
				<g>
					<path style="fill:none;stroke:#344F12;stroke-linecap:round;stroke-linejoin:round;stroke-miterlimit:10;" d="M61.859,378.88
						c0,0,24.285,34.326,23.818,68.885"/>
					<path style="fill:none;stroke:#344F12;stroke-linecap:round;stroke-linejoin:round;stroke-miterlimit:10;" d="M131.911,389.621
						c0,0-38.901,13.777-40.116,63.514"/>
					<path style="fill:none;stroke:#344F12;stroke-linecap:round;stroke-linejoin:round;stroke-miterlimit:10;" d="M101.322,342.686
						c0,0-13.137,16.813-12.99,122.825"/>
				</g>
			</g>
			<g>
				<polygon style="fill:#E5651F;" points="88.479,428.138 64.969,428.138 71.35,471.127 88.479,471.127 105.607,471.127 
					111.989,428.138 				"/>
				<polyline style="fill:none;stroke:#843914;stroke-linecap:round;stroke-linejoin:round;stroke-miterlimit:10;" points="
					67.152,430.657 108.966,430.657 103.76,469.112 				"/>
			</g>
		</g>
		<path style="fill:#62BCB5;" d="M266.924,82.828v17.629l-15.102,20.024l23.458-16.628h31.215c5.986,0,10.838-4.853,10.838-10.838
			V82.828c0-5.986-4.852-10.838-10.838-10.838h-28.732C271.777,71.99,266.924,76.843,266.924,82.828z"/>
		<g>
			<g>
				<path style="fill:#71AF28;" d="M637.839,285.875c-2.024-3.294-2.011-6.98,0.03-8.235c1.644-1.011,4.103-0.131,6.055,1.971
					c0.031-0.658,0.05-1.326,0.05-2.008c0-4.645-1.382-9.17-3.32-13.242c-3.663,0.662-6.957-0.587-7.434-2.868
					c-0.349-1.671,0.912-3.438,3.032-4.604c-3.953-5.632-7.945-9.286-7.945-9.286s-9.303,3.689-17.669,10.377
					c2.647,0.54,4.566,2.054,4.625,3.901c0.076,2.394-2.994,4.435-6.858,4.558c-2.003,0.064-3.821-0.403-5.123-1.197
					c-2.588,3.277-4.545,6.966-5.312,11.027c3.631,0.046,6.553,1.824,6.626,4.112c0.075,2.331-2.838,4.323-6.559,4.539
					c2.75,17.531,16.163,18.888,16.163,18.888c6.005,1.868,11.972,1.347,16.971-1.269c-2.023-3.293-2.01-6.979,0.031-8.233
					c1.824-1.121,4.648,0.085,6.673,2.704c1.685-2.078,3.09-4.538,4.121-7.368C640.508,289.05,638.974,287.72,637.839,285.875z"/>
				<path style="fill:#71AF28;" d="M649.224,321.058c0.265-2.296,1.632-4.025,3.055-3.861c1.146,0.132,1.978,1.453,2.119,3.163
					c0.258-0.298,0.513-0.605,0.765-0.925c1.716-2.184,2.737-4.822,3.329-7.452c-1.967-1.042-3.054-2.845-2.436-4.094
					c0.453-0.914,1.698-1.28,3.126-1.045c0.221-4.108-0.306-7.3-0.306-7.3s-5.737-1.701-12.139-1.647
					c1.045,1.232,1.388,2.652,0.734,3.542c-0.848,1.154-3.045,0.979-4.908-0.389c-0.965-0.71-1.648-1.6-1.966-2.455
					c-2.427,0.585-4.709,1.597-6.57,3.223c1.69,1.363,2.408,3.278,1.597,4.38c-0.826,1.124-2.93,0.984-4.76-0.288
					c-5.181,9.258,0.624,14.849,0.624,14.849c2.133,3.096,5.131,5.054,8.448,5.671c0.265-2.296,1.632-4.024,3.055-3.86
					c1.271,0.147,2.154,1.756,2.138,3.736c1.56-0.354,3.129-0.992,4.659-1.943C649.306,323.537,649.076,322.345,649.224,321.058z"/>
				<path style="fill:#71AF28;" d="M631.278,350.946c1.838-0.455,3.557,0.099,3.839,1.237c0.227,0.918-0.548,1.935-1.82,2.533
					c0.302,0.113,0.612,0.22,0.93,0.322c2.168,0.69,4.485,0.718,6.674,0.418c0.235-1.808,1.308-3.16,2.443-3.043
					c0.832,0.085,1.469,0.937,1.698,2.099c3.216-1.008,5.514-2.328,5.514-2.328s-0.339-4.89-2.217-9.789
					c-0.646,1.155-1.637,1.826-2.508,1.579c-1.129-0.32-1.625-2.056-1.108-3.878c0.268-0.944,0.756-1.723,1.32-2.213
					c-1.145-1.695-2.576-3.156-4.357-4.118c-0.561,1.688-1.825,2.787-2.904,2.482c-1.099-0.312-1.596-1.967-1.144-3.736
					c-8.591-1.322-11.217,4.737-11.217,4.737c-1.764,2.525-2.408,5.387-1.93,8.109c1.838-0.455,3.556,0.099,3.838,1.238
					c0.252,1.018-0.73,2.156-2.254,2.712c0.719,1.095,1.659,2.116,2.827,3.018C629.399,351.719,630.248,351.201,631.278,350.946z"/>
				<path style="fill:#71AF28;" d="M602.304,354.107c-1.575-0.39-3.048,0.085-3.289,1.06c-0.195,0.786,0.47,1.658,1.559,2.171
					c-0.259,0.096-0.524,0.189-0.797,0.276c-1.858,0.591-3.843,0.615-5.718,0.358c-0.202-1.549-1.12-2.708-2.094-2.608
					c-0.713,0.073-1.259,0.802-1.455,1.799c-2.755-0.864-4.725-1.995-4.725-1.995s0.291-4.19,1.9-8.388
					c0.553,0.99,1.403,1.565,2.149,1.353c0.967-0.274,1.392-1.762,0.95-3.323c-0.229-0.809-0.648-1.477-1.131-1.896
					c0.981-1.452,2.207-2.704,3.733-3.529c0.481,1.446,1.564,2.388,2.488,2.126c0.942-0.267,1.367-1.685,0.98-3.201
					c7.361-1.132,9.612,4.059,9.612,4.059c1.512,2.164,2.063,4.616,1.653,6.949c-1.575-0.39-3.047,0.085-3.289,1.061
					c-0.216,0.872,0.626,1.848,1.931,2.324c-0.616,0.939-1.421,1.814-2.422,2.586C603.914,354.77,603.187,354.326,602.304,354.107z"
					/>
				<path style="fill:#71AF28;" d="M600.147,306.115c-3.089,0.66-5.925-0.356-6.334-2.27c-0.33-1.542,1.019-3.196,3.171-4.125
					c-0.498-0.204-1.008-0.4-1.532-0.586c-3.578-1.268-7.439-1.438-11.104-1.057c-0.49,3.002-2.351,5.198-4.238,4.942
					c-1.382-0.187-2.399-1.64-2.718-3.591c-5.416,1.508-9.32,3.584-9.32,3.584s0.302,8.172,3.169,16.44
					c1.138-1.891,2.828-2.956,4.267-2.497c1.865,0.595,2.599,3.516,1.639,6.526c-0.497,1.56-1.353,2.833-2.32,3.618
					c1.818,2.887,4.124,5.401,7.043,7.101c1.026-2.784,3.193-4.549,4.975-3.981c1.816,0.579,2.555,3.365,1.706,6.29
					c14.252,2.666,18.957-7.293,18.957-7.293c3.078-4.115,4.305-8.852,3.654-13.416c-3.089,0.66-5.923-0.357-6.332-2.27
					c-0.365-1.711,1.334-3.556,3.904-4.401c-1.14-1.865-2.652-3.618-4.55-5.184C603.321,304.927,601.878,305.745,600.147,306.115z"
					/>
				<path style="fill:none;stroke:#344F12;stroke-linecap:round;stroke-linejoin:round;stroke-miterlimit:10;" d="M656.368,301.353
					c0,0-35.75,6.5-38.75,76.5"/>
				<path style="fill:none;stroke:#344F12;stroke-linecap:round;stroke-linejoin:round;stroke-miterlimit:10;" d="M573.118,304.923
					c0,0,40.25,14.431,41.75,67.431"/>
				<path style="fill:none;stroke:#344F12;stroke-linecap:round;stroke-linejoin:round;stroke-miterlimit:10;" d="M627.618,250.854
					c0,0-26.291,54.25-6.645,120.25"/>
				<path style="fill:none;stroke:#344F12;stroke-linecap:round;stroke-linejoin:round;stroke-miterlimit:10;" d="M593.993,348.138
					c0,0,15.731-15.215,21.803,0"/>
				<path style="fill:none;stroke:#344F12;stroke-linecap:round;stroke-linejoin:round;stroke-miterlimit:10;" d="M648.118,349.603
					c0,0-32.229-30.681-30.99,6.034"/>
			</g>
			<g>
				<polygon style="fill:#E5651F;" points="616.515,358.727 593.005,358.727 599.386,401.717 616.515,401.717 633.644,401.717 
					640.025,358.727 				"/>
				<polyline style="fill:none;stroke:#843914;stroke-linecap:round;stroke-linejoin:round;stroke-miterlimit:10;" points="
					595.188,361.246 637.002,361.246 631.796,399.701 				"/>
			</g>
		</g>
		<g>
			<rect x="352.296" y="88.82" style="fill:#EF9365;" width="65.472" height="41.985"/>
			<polygon style="fill:#993300;" points="352.296,88.82 385.032,117.962 417.768,88.82 			"/>
			<polygon style="fill:#E5651F;" points="352.296,130.804 385.032,100.81 417.768,130.804 			"/>
		</g>
		<g>
			
				<line style="fill:none;stroke:#0C1435;stroke-width:3;stroke-linecap:round;stroke-linejoin:round;stroke-miterlimit:10;" x1="30.108" y1="472.553" x2="275.28" y2="472.553"/>
			
				<line style="fill:none;stroke:#0C1435;stroke-width:3;stroke-linecap:round;stroke-linejoin:round;stroke-miterlimit:10;" x1="304.41" y1="473.405" x2="363.479" y2="473.405"/>
			
				<line style="fill:none;stroke:#0C1435;stroke-width:3;stroke-linecap:round;stroke-linejoin:round;stroke-miterlimit:10;" x1="397.633" y1="472.553" x2="592.855" y2="472.553"/>
			
				<line style="fill:none;stroke:#0C1435;stroke-width:3;stroke-linecap:round;stroke-linejoin:round;stroke-miterlimit:10;" x1="624.338" y1="473.129" x2="732" y2="473.129"/>
		</g>
		<g>
			<path style="fill:#99DDD8;" d="M566.499,80.573c0,3.083-2.5,5.583-5.583,5.583c-3.083,0-5.583-2.499-5.583-5.583
				c0-3.083,2.499-5.583,5.583-5.583C564,74.99,566.499,77.49,566.499,80.573z"/>
			<path style="fill:#99DDD8;" d="M650.562,221.198c0,3.412-2.766,6.177-6.177,6.177c-3.412,0-6.178-2.766-6.178-6.177
				s2.766-6.177,6.178-6.177C647.797,215.02,650.562,217.786,650.562,221.198z"/>
			<circle style="fill:#99DDD8;" cx="686.984" cy="342.363" r="5.402"/>
			<path style="fill:#99DDD8;" d="M505.932,138.083c0,2.363-1.915,4.278-4.278,4.278c-2.363,0-4.278-1.915-4.278-4.278
				c0-2.363,1.915-4.278,4.278-4.278C504.016,133.804,505.932,135.72,505.932,138.083z"/>
			<circle style="fill:#99DDD8;" cx="282.709" cy="140.846" r="10.042"/>
			<path style="fill:#99DDD8;" d="M135.514,128.449c0,2.743-2.224,4.968-4.968,4.968c-2.744,0-4.968-2.224-4.968-4.968
				c0-2.744,2.224-4.968,4.968-4.968C133.29,123.482,135.514,125.706,135.514,128.449z"/>
			<circle style="fill:#99DDD8;" cx="85.367" cy="269.48" r="6.428"/>
			<path style="fill:#191038;" d="M85.367,312.144c0,3.293-2.67,5.963-5.963,5.963c-3.293,0-5.963-2.67-5.963-5.963
				c0-3.293,2.67-5.963,5.963-5.963C82.698,306.181,85.367,308.85,85.367,312.144z"/>
		</g>
	</g>
</g>
</svg>
